<?xml version="1.0" standalone="no"?>
<!DOCTYPE svg PUBLIC "-//W3C//DTD SVG 20010904//EN"
 "http://www.w3.org/TR/2001/REC-SVG-20010904/DTD/svg10.dtd">
<svg version="1.0" xmlns="http://www.w3.org/2000/svg"
 width="256.000000pt" height="250.000000pt" viewBox="0 0 256.000000 250.000000"
 preserveAspectRatio="xMidYMid meet">

<g transform="translate(0.000000,250.000000) scale(0.100000,-0.100000)"
fill="#000000" stroke="none">
<path d="M550 2484 c-43 -9 -115 -34 -170 -61 -81 -39 -108 -59 -180 -132 -64
-64 -95 -105 -122 -161 -74 -150 -73 -136 -73 -880 0 -744 -1 -730 73 -880 54
-111 178 -233 292 -288 166 -81 96 -76 1110 -80 629 -2 916 0 942 8 52 15 94
53 113 103 14 38 15 133 12 937 -3 982 0 925 -65 1063 -64 136 -171 245 -307
311 -147 72 -115 70 -870 72 -566 2 -693 0 -755 -12z m1110 -572 c178 -99 331
-189 338 -201 12 -18 12 -24 -1 -43 -8 -13 -162 -106 -342 -207 -307 -171
-331 -183 -369 -178 -29 3 -134 57 -356 182 -173 97 -321 182 -328 188 -7 6
-12 24 -10 40 3 28 21 40 278 184 403 226 401 225 435 220 17 -3 176 -86 355
-185z m-630 -679 c140 -80 260 -146 265 -146 6 0 126 66 268 146 141 81 261
147 266 147 18 0 170 -92 175 -107 4 -9 4 -24 1 -34 -4 -11 -140 -95 -339
-209 -253 -144 -342 -190 -367 -190 -24 0 -72 21 -155 68 -389 217 -544 309
-550 325 -13 39 5 62 78 104 40 22 80 41 88 42 9 1 130 -65 270 -146z m6 -409
c139 -79 256 -144 261 -144 4 0 127 67 271 149 l262 149 80 -45 c92 -52 109
-73 86 -107 -8 -13 -160 -106 -338 -207 -273 -155 -329 -184 -363 -183 -33 0
-95 31 -370 190 l-330 189 0 35 c0 32 5 37 80 81 44 26 87 45 95 43 8 -3 128
-70 266 -150z"/>
</g>
</svg>
